<?xml version="1.0" encoding="utf-8"?>
<!-- Generator: Adobe Illustrator 23.0.1, SVG Export Plug-In . SVG Version: 6.00 Build 0)  -->
<svg version="1.1" xmlns="http://www.w3.org/2000/svg" xmlns:xlink="http://www.w3.org/1999/xlink" x="0px" y="0px"
	 viewBox="0 0 146.6 123.1" style="enable-background:new 0 0 146.6 123.1;" xml:space="preserve">
<style type="text/css">
	.st0{fill:none;stroke:#2388A5;stroke-width:10;stroke-miterlimit:10;}
	.st1{fill:#2388A5;}
	.st2{display:none;}
	.st3{display:inline;}
	.st4{fill:#FFFFFF;}
</style>
<g id="growth_man">
	<circle class="st0" cx="59.6" cy="63.1" r="47.1"/>
	<polygon class="st1" points="21.1,57.2 29.6,48.9 63.5,82.1 130.4,10.5 138.3,17.2 64.1,99 	"/>
</g>
<g id="Layer_2" class="st2">
	<g class="st3">
		<g>
			<g>
				<path class="st4" d="M-6.8,91.9c-1.6,0-2.8,1.3-2.8,2.8v28.7c0,1.6,1.3,2.8,2.8,2.8S-4,125-4,123.5V94.8
					C-4,93.2-5.3,91.9-6.8,91.9z"/>
			</g>
		</g>
		<g>
			<g>
				<path class="st4" d="M-23.9,18.5h-57.3c-7.8,0-14.1,6.3-14.1,14.1v20.5c0,1.6,1.3,2.8,2.8,2.8s2.8-1.3,2.8-2.8V32.6
					c0-4.6,3.7-8.2,8.4-8.2h57.3c1.6,0,2.8-1.3,2.8-2.8C-21.1,19.9-22.3,18.5-23.9,18.5z"/>
			</g>
		</g>
		<g>
			<g>
				<path class="st4" d="M67.4,18.5H10.2c-1.6,0-2.8,1.3-2.8,2.8c0,1.6,1.3,2.8,2.8,2.8h57.2c4.6,0,8.2,3.7,8.2,8.2v98.3H57.6
					c-1.6,0-2.8,1.3-2.8,2.8c0,1.6,1.3,2.8,2.8,2.8h18.1v5.3c0,4.6-3.7,8.2-8.2,8.2H-81.2c-4.6,0-8.4-3.7-8.4-8.2v-5.3H48.1
					c1.6,0,2.8-1.3,2.8-2.8c0-1.6-1.3-2.8-2.8-2.8h-11c0-0.6,0.1-1,0.1-1.6c0-7-5.7-12.5-12.5-12.5c-1.6,0-3,0.3-4.4,0.9
					c-2.8-5.3-8.4-8.7-14.5-8.7c0,0,0,0-0.1,0V94.9c0-1.6-1.3-2.8-2.8-2.8S0,93.3,0,94.9v24c0,1.6,1.3,2.8,2.8,2.8s2.8-1.3,2.8-2.8
					v-4.3c0,0,0,0,0.1,0c4.8,0,9,3.3,10.4,7.8c0.3,0.9,1,1.7,1.8,2c0.9,0.3,1.8,0.1,2.7-0.4c1.1-0.9,2.6-1.4,4.1-1.4
					c3.7,0,6.8,3,6.8,6.8c0,0.6,0,1-0.1,1.6h-76.4c-0.1-0.6-0.1-1-0.1-1.6c0-3.7,3-6.8,6.8-6.8c1.6,0,3,0.4,4.1,1.4
					c0.7,0.6,1.7,0.7,2.7,0.4c0.9-0.3,1.6-1,1.8-2c1.3-4.6,5.5-7.8,10.4-7.8l0,0v4.3c0,1.6,1.3,2.8,2.8,2.8s2.8-1.3,2.8-2.8V94.8
					c0-1.6-1.3-2.8-2.8-2.8s-2.8,1.3-2.8,2.8v13.9l0,0c-6.1,0-11.7,3.4-14.5,8.7c-1.4-0.6-2.8-0.9-4.4-0.9c-7,0-12.5,5.7-12.5,12.5
					c0,0.6,0,1,0.1,1.6h-38.5v-68c0-1.6-1.3-2.8-2.8-2.8s-2.8,1.3-2.8,2.8v79.2c0,7.8,6.3,14.1,14.1,14.1h49.4l-7.1,16.5h-13.8
					c-1.6,0-2.8,1.3-2.8,2.8c0,1.6,1.3,2.8,2.8,2.8h91.9c1.6,0,2.8-1.3,2.8-2.8c0-1.6-1.3-2.8-2.8-2.8H26l-7.1-16.5h49.4
					c7.8,0,14.1-6.3,14.1-14.1V32.6C81.5,24.8,75.2,18.5,67.4,18.5z M18.9,172.4h-51.6l5-11.5h41.8L18.9,172.4z"/>
			</g>
		</g>
		<g>
			<g>
				<path class="st4" d="M-4.6,141c-1.4-2.1-4.8-1.4-5.3,1.1c-0.1,1.1,0.4,2.4,1.4,3c1.1,0.6,2.4,0.4,3.3-0.4
					C-3.8,143.8-3.7,142.3-4.6,141z"/>
			</g>
		</g>
		<g>
			<g>
				<path class="st4" d="M20.3,63.2c-2.3-3.7-5-6.1-6.8-7.4c0.4-2.3,0.6-4.7,0.6-7.1c0-1.6-1.3-2.8-2.8-2.8s-2.8,1.3-2.8,2.8
					C8.4,60.5,2.7,71.3-7,78.1c-9.7-6.7-15.4-17.6-15.4-29.4c0-5,1-10,3-14.4c3.7,2.4,8,3.7,12.4,3.7c4.4,0,8.7-1.3,12.4-3.7
					c0.7,1.7,1.4,3.6,1.8,5.4c0.4,1.6,2,2.4,3.6,2.1c1.6-0.4,2.4-2,2.1-3.6C10.2,28,3.7,19.2-5.4,13.4c-1-0.6-2.1-0.6-3,0
					C-20.6,21.1-28,34.3-28,48.7c0,2.4,0.1,4.7,0.6,7.1c-1.8,1.3-4.6,3.7-6.8,7.4c-5.8,9.7-4,20.6-1.3,28c0.3,0.9,1,1.6,2,1.8
					c0.9,0.3,1.8,0,2.6-0.6c0.1-0.1,9.5-8,23.9-8s23.8,8,23.9,8c0.6,0.4,1.1,0.7,1.8,0.7c0.3,0,0.4,0,0.7-0.1c0.9-0.3,1.7-0.9,2-1.8
					C26.5,77.7,23.6,68.6,20.3,63.2z M-6.8,19.4c3.8,2.7,7.1,6.1,9.7,10c-2.8,2-6.1,3.1-9.7,3.1s-6.8-1.1-9.7-3.1
					C-14.1,25.5-10.8,22.1-6.8,19.4z M-31.1,85.6c-3.4-12.9,1.7-20.3,5.3-23.8c2.3,6.7,6.1,12.7,11.2,17.4
					C-22,80.7-27.7,83.5-31.1,85.6z M17.4,85.6c-3.4-2.1-9.1-5-16.5-6.3C6.1,74.6,10,68.6,12.1,62C15.6,65.3,20.8,72.7,17.4,85.6z"
					/>
			</g>
		</g>
		<g>
			<g>
				<path class="st4" d="M-6.4,40.8c-5.3,0-9.5,4.3-9.5,9.5s4.3,9.5,9.5,9.5s9.5-4.3,9.5-9.5C3.3,45.1-1.1,40.8-6.4,40.8z
					 M-6.4,54.2c-2.1,0-3.8-1.7-3.8-3.8c0-2.1,1.7-3.8,3.8-3.8s3.8,1.7,3.8,3.8C-2.6,52.5-4.3,54.2-6.4,54.2z"/>
			</g>
		</g>
	</g>
</g>
</svg>
