<?xml version="1.0" encoding="utf-8"?>
<!-- Generator: Adobe Illustrator 24.0.2, SVG Export Plug-In . SVG Version: 6.00 Build 0)  -->
<svg version="1.1" id="Capa_1" xmlns="http://www.w3.org/2000/svg" xmlns:xlink="http://www.w3.org/1999/xlink" x="0px" y="0px"
	 viewBox="0 0 488 488" style="enable-background:new 0 0 488 488;" xml:space="preserve">
<style type="text/css">
	.st0{fill:#083151;}
</style>
<g>
	<g>
		<path class="st0" d="M460.1,65.6l-20.9-18.4l20.9-18.4c3.2-2.9,4.4-7.3,2.8-11.4c-1.5-4-5.3-6.7-9.6-6.7H367V7.2
			c0-4-3.2-7.2-7.2-7.2s-7.2,3.2-7.2,7.2v96.5l-58.7,31.9c-0.3-2.6-1.1-5.1-2.3-7.5l-8.3-16.2c-5.7-11.1-19.3-15.5-30.4-9.8
			l-6.4,3.3c-5.4,2.8-9.4,7.4-11.2,13.2c-1.9,5.7-1.4,11.9,1.4,17.2l8.3,16.2c1.9,3.8,4.8,6.8,8.1,8.8c-4.4,5.9-6.5,13.2-8.6,20.7
			l-1.5,5.5c-1.1,3.8,1.1,7.8,4.9,8.8c0.6,0.2,1.3,0.3,1.9,0.3c3.1,0,6-2.1,6.9-5.2l1.5-5.4c3.1-11.1,5.1-17,11.2-20.3l11-6l1.4-0.7
			c0.5-0.2,0.9-0.5,1.3-0.7l78.3-42.5c-0.5,9.8-5.8,19-14.4,24.3L296,170.4c-0.1,0-0.1,0.1-0.2,0.1l-15.8,9.6
			c-3.4,2.1-4.4,6.5-2.4,9.8c1.9,3.2,6,4.3,9.2,2.7l-12,36.4l-8.8,3.6l-23.9,9.8l6.9-24.3c1.1-3.8-1.1-7.8-4.9-8.8
			c-3.8-1.1-7.8,1.1-8.8,4.9l-10.9,38.5c-0.1,0.5-0.2,1-0.3,1.6l-2.8,52.3c-0.1,2,0.3,5.8-0.6,7.7l-31.6,66.5h-23
			c-13.5,0-24.4,11-24.4,24.4v20.6c-3.1-1.4-6.5-2.2-10.1-2.2H73.2c-13.5,0-24.4,10.9-24.4,24.4v25.6H31.6c-4,0-7.2,3.2-7.2,7.2
			s3.2,7.2,7.2,7.2h421.7c4,0,7.2-3.2,7.2-7.2s-3.2-7.2-7.2-7.2h-18.6V289.3c0-13.5-11-24.4-24.4-24.4H367V140.2
			c7.9-10.7,10.9-24.8,7.2-38.2c-0.6-2.1-2.1-3.8-4.1-4.7c-1-0.4-2-0.6-3.1-0.6V83.6h86.3c4.3,0,8.1-2.6,9.6-6.7
			S463.3,68.5,460.1,65.6z M248.9,122.9c0.7-2.1,2.1-3.8,4.1-4.8l6.4-3.3c1.2-0.6,2.5-0.9,3.8-0.9c3,0,5.9,1.6,7.4,4.5l8.3,16.2
			c1.9,3.8,0.7,8.4-2.8,10.7l-2.3,1.3l-4.9,2.5c-4.1,2.1-9.1,0.5-11.2-3.6l-8.3-16.2C248.4,127.2,248.2,125,248.9,122.9z M234.6,383
			c-2.4-1.1-5.1-1.8-7.9-2.1l7.9-10.4V383z M268.5,325.4c3.4-4.1,4.4-8.9,5.2-12.8c0.2-0.9,3.7-20.2,3.7-20.2s3.3,2.1,3.7,2.2
			c0.2,0.1,0.4,0.3,0.4,0.6l3.9,39.6h-24L268.5,325.4z M310.8,285.9l-6,48.8h-5l-4-40.9c-0.5-5.2-3.7-9.8-8.4-12.1l-7.2-4.6
			l4.8-26.6c0,0,20.2,24,20.7,24.6C309.8,280.6,311.2,282.8,310.8,285.9z M233.6,320.5c1.4-4.3,2.1-8.8,2-13.3l2.6-47.7l33.1-13.6
			l-6,33.3c0,0.1,0,0.2,0,0.3l-5,27.5c-0.6,2.9-1.2,7.2-3,9.5l-48.3,64.2h-4L233.6,320.5z M63,448.1c0-5.6,4.5-10.1,10.1-10.1h58.4
			c5.6,0,10.1,4.5,10.1,10.1v25.6H63V448.1z M155.9,448.1v-42.9c0-5.6,4.5-10.1,10.1-10.1h58.4c5.6,0,10.1,4.5,10.1,10.1v68.5H156
			L155.9,448.1L155.9,448.1z M420.4,289.3v184.4h-78.6v-42.9c0-4-3.2-7.2-7.2-7.2c-4,0-7.2,3.2-7.2,7.2v42.9h-78.6V359.2
			c0-5.6,4.5-10.1,10.1-10.1h58.4c5.6,0,10.1,4.5,10.1,10.1V395c0,4,3.2,7.2,7.2,7.2c4,0,7.2-3.2,7.2-7.2V289.3
			c0-5.6,4.5-10.1,10.1-10.1h7.9c0,0,0,0,0.1,0c0,0,0,0,0.1,0h50.3C415.8,279.2,420.4,283.8,420.4,289.3z M351.9,264.9
			c-13.5,0-24.4,11-24.4,24.4V337c-2.6-1.2-5.4-1.9-8.3-2.1l5.8-47.2c1.1-9.2-3.5-15.3-8.1-21.2c-0.5-0.6-28.3-33.6-28.3-33.6
			l17.1-51.6l47-28.5v112.2H351.9z M367,69.3V25.2h75.7l-16.3,14.3c-2.2,2-3.5,4.8-3.5,7.7s1.3,5.8,3.5,7.7l16.3,14.3L367,69.3
			L367,69.3z"/>
	</g>
</g>
</svg>
