<?xml version="1.0" encoding="utf-8"?>
<!-- Generator: Adobe Illustrator 24.0.2, SVG Export Plug-In . SVG Version: 6.00 Build 0)  -->
<svg version="1.1" id="growth_man" xmlns="http://www.w3.org/2000/svg" xmlns:xlink="http://www.w3.org/1999/xlink" x="0px" y="0px"
	 viewBox="0 0 370 185" style="enable-background:new 0 0 370 185;" xml:space="preserve">
<style type="text/css">
	.st0{fill:#083151;}
	.st1{fill:#FFFFFF;}
	.st2{fill:#2388A5;}
</style>
<g>
	<path class="st0" d="M321.1,185H2.5c-3.5,0-5.2-8.4-2.7-13l40.4-74c1.6-3,1.6-8,0-11L-0.2,13C-2.8,8.4-1.1,0,2.5,0h318.6
		c1,0,1.9,0.7,2.7,2.1L370.2,87c1.6,3,1.6,8,0,11l-46.5,84.9C323,184.3,322.1,185,321.1,185z"/>
	<g>
		<g>
			<path class="st1" d="M236.4,50l-5-4.4l5-4.4c0.8-0.7,1-1.7,0.7-2.7c-0.4-1-1.3-1.6-2.3-1.6h-20.5v-0.9c0-0.9-0.8-1.7-1.7-1.7
				c-0.9,0-1.7,0.8-1.7,1.7v23l-14,7.6c-0.1-0.6-0.3-1.2-0.6-1.8l-2-3.8c-1.4-2.6-4.6-3.7-7.2-2.3l-1.5,0.8
				c-1.3,0.7-2.2,1.8-2.7,3.1c-0.4,1.4-0.3,2.8,0.3,4.1l2,3.8c0.5,0.9,1.1,1.6,1.9,2.1c-1,1.4-1.5,3.1-2.1,4.9l-0.4,1.3
				c-0.3,0.9,0.3,1.8,1.2,2.1c0.2,0,0.3,0.1,0.5,0.1c0.7,0,1.4-0.5,1.6-1.2l0.4-1.3c0.7-2.6,1.2-4,2.7-4.8l2.6-1.4l0.3-0.2
				c0.1-0.1,0.2-0.1,0.3-0.2l18.6-10.1c-0.1,2.3-1.4,4.5-3.4,5.8L197.4,75c0,0,0,0,0,0l-3.8,2.3c-0.8,0.5-1.1,1.5-0.6,2.3
				c0.5,0.8,1.4,1,2.2,0.6l-2.9,8.7l-2.1,0.9l-5.7,2.3l1.6-5.8c0.3-0.9-0.3-1.8-1.2-2.1c-0.9-0.3-1.8,0.3-2.1,1.2l-2.6,9.2
				c0,0.1-0.1,0.2-0.1,0.4l-0.7,12.5c0,0.5,0.1,1.4-0.1,1.8l-7.5,15.8h-5.5c-3.2,0-5.8,2.6-5.8,5.8v4.9c-0.7-0.3-1.5-0.5-2.4-0.5
				h-13.9c-3.2,0-5.8,2.6-5.8,5.8v6.1h-4.1c-0.9,0-1.7,0.8-1.7,1.7s0.8,1.7,1.7,1.7h100.4c0.9,0,1.7-0.8,1.7-1.7s-0.8-1.7-1.7-1.7
				h-4.4v-43.9c0-3.2-2.6-5.8-5.8-5.8h-10.3V67.8c1.9-2.6,2.6-5.9,1.7-9.1c-0.1-0.5-0.5-0.9-1-1.1c-0.2-0.1-0.5-0.1-0.7-0.1v-3.1
				h20.5c1,0,1.9-0.6,2.3-1.6C237.5,51.8,237.2,50.7,236.4,50z M186.2,63.7c0.2-0.5,0.5-0.9,1-1.2l1.5-0.8c0.3-0.1,0.6-0.2,0.9-0.2
				c0.7,0,1.4,0.4,1.8,1.1l2,3.8c0.5,0.9,0.2,2-0.7,2.5l-0.6,0.3l-1.2,0.6c-1,0.5-2.2,0.1-2.7-0.9l-2-3.8
				C186.1,64.7,186,64.2,186.2,63.7z M182.8,125.6c-0.6-0.3-1.2-0.4-1.9-0.5l1.9-2.5V125.6z M190.8,111.9c0.8-1,1-2.1,1.2-3
				c0-0.2,0.9-4.8,0.9-4.8s0.8,0.5,0.9,0.5c0.1,0,0.1,0.1,0.1,0.1l0.9,9.4h-5.7L190.8,111.9z M200.9,102.5l-1.4,11.6h-1.2l-1-9.7
				c-0.1-1.2-0.9-2.3-2-2.9l-1.7-1.1l1.1-6.3c0,0,4.8,5.7,4.9,5.9C200.7,101.2,201,101.7,200.9,102.5z M182.5,110.7
				c0.3-1,0.5-2.1,0.5-3.2l0.6-11.4l7.9-3.2l-1.4,7.9c0,0,0,0,0,0.1l-1.2,6.6c-0.2,0.7-0.3,1.7-0.7,2.3l-11.5,15.3h-0.9L182.5,110.7
				z M141.9,141.1c0-1.3,1.1-2.4,2.4-2.4h13.9c1.3,0,2.4,1.1,2.4,2.4v6.1h-18.7V141.1z M164,141.1v-10.2c0-1.3,1.1-2.4,2.4-2.4h13.9
				c1.3,0,2.4,1.1,2.4,2.4v16.3H164L164,141.1L164,141.1z M227,103.3v43.9h-18.7V137c0-0.9-0.8-1.7-1.7-1.7c-0.9,0-1.7,0.8-1.7,1.7
				v10.2h-18.7v-27.3c0-1.3,1.1-2.4,2.4-2.4h13.9c1.3,0,2.4,1.1,2.4,2.4v8.5c0,0.9,0.8,1.7,1.7,1.7c0.9,0,1.7-0.8,1.7-1.7v-25.2
				c0-1.3,1.1-2.4,2.4-2.4h1.9c0,0,0,0,0,0c0,0,0,0,0,0h12C225.9,100.9,227,102,227,103.3z M210.7,97.5c-3.2,0-5.8,2.6-5.8,5.8v11.3
				c-0.6-0.3-1.3-0.5-2-0.5l1.4-11.2c0.3-2.2-0.8-3.6-1.9-5c-0.1-0.1-6.7-8-6.7-8l4.1-12.3l11.2-6.8v26.7H210.7z M214.3,50.9V40.4
				h18l-3.9,3.4c-0.5,0.5-0.8,1.1-0.8,1.8s0.3,1.4,0.8,1.8l3.9,3.4L214.3,50.9L214.3,50.9z"/>
		</g>
	</g>
</g>
</svg>
