<?xml version="1.0" encoding="utf-8"?>
<!-- Generator: Adobe Illustrator 23.0.1, SVG Export Plug-In . SVG Version: 6.00 Build 0)  -->
<svg version="1.1" xmlns="http://www.w3.org/2000/svg" xmlns:xlink="http://www.w3.org/1999/xlink" x="0px" y="0px"
	 viewBox="0 0 462.9 243.1" style="enable-background:new 0 0 462.9 243.1;" xml:space="preserve">
<style type="text/css">
	.st0{fill:#2388A5;}
	.st1{fill:#FFFFFF;}
</style>
<g id="growth_man">
	<rect class="st0" width="462.9" height="243.1"/>
</g>
<g id="Layer_2">
	<g>
		<g>
			<g>
				<path class="st1" d="M233.1,117c-1.6,0-2.8,1.3-2.8,2.8v28.7c0,1.6,1.3,2.8,2.8,2.8c1.6,0,2.8-1.3,2.8-2.8v-28.7
					C236,118.3,234.7,117,233.1,117z"/>
			</g>
		</g>
		<g>
			<g>
				<path class="st1" d="M216.1,43.6h-57.3c-7.8,0-14.1,6.3-14.1,14.1v20.5c0,1.6,1.3,2.8,2.8,2.8c1.6,0,2.8-1.3,2.8-2.8V57.7
					c0-4.6,3.7-8.2,8.4-8.2h57.3c1.6,0,2.8-1.3,2.8-2.8S217.6,43.6,216.1,43.6z"/>
			</g>
		</g>
		<g>
			<g>
				<path class="st1" d="M307.4,43.6h-57.2c-1.6,0-2.8,1.3-2.8,2.8s1.3,2.8,2.8,2.8h57.2c4.6,0,8.2,3.7,8.2,8.2v98.3h-18.1
					c-1.6,0-2.8,1.3-2.8,2.8c0,1.6,1.3,2.8,2.8,2.8h18.1v5.3c0,4.6-3.7,8.2-8.2,8.2H158.7c-4.6,0-8.4-3.7-8.4-8.2v-5.3H288
					c1.6,0,2.8-1.3,2.8-2.8c0-1.6-1.3-2.8-2.8-2.8h-11c0-0.6,0.1-1,0.1-1.6c0-7-5.7-12.5-12.5-12.5c-1.6,0-3,0.3-4.4,0.9
					c-2.8-5.3-8.4-8.7-14.5-8.7c0,0,0,0-0.1,0V120c0-1.6-1.3-2.8-2.8-2.8c-1.6,0-2.8,1.3-2.8,2.8v24c0,1.6,1.3,2.8,2.8,2.8
					c1.6,0,2.8-1.3,2.8-2.8v-4.3c0,0,0,0,0.1,0c4.8,0,9,3.3,10.4,7.8c0.3,0.9,1,1.7,1.8,2c0.9,0.3,1.8,0.1,2.7-0.4
					c1.1-0.9,2.6-1.4,4.1-1.4c3.7,0,6.8,3,6.8,6.8c0,0.6,0,1-0.1,1.6h-76.4c-0.1-0.6-0.1-1-0.1-1.6c0-3.7,3-6.8,6.8-6.8
					c1.6,0,3,0.4,4.1,1.4c0.7,0.6,1.7,0.7,2.7,0.4c0.9-0.3,1.6-1,1.8-2c1.3-4.6,5.5-7.8,10.4-7.8l0,0v4.3c0,1.6,1.3,2.8,2.8,2.8
					s2.8-1.3,2.8-2.8v-24.2c0-1.6-1.3-2.8-2.8-2.8s-2.8,1.3-2.8,2.8v13.9l0,0c-6.1,0-11.7,3.4-14.5,8.7c-1.4-0.6-2.8-0.9-4.4-0.9
					c-7,0-12.5,5.7-12.5,12.5c0,0.6,0,1,0.1,1.6h-38.5v-68c0-1.6-1.3-2.8-2.8-2.8c-1.6,0-2.8,1.3-2.8,2.8v79.2
					c0,7.8,6.3,14.1,14.1,14.1h49.4l-7.1,16.5h-13.8c-1.6,0-2.8,1.3-2.8,2.8c0,1.6,1.3,2.8,2.8,2.8h91.9c1.6,0,2.8-1.3,2.8-2.8
					c0-1.6-1.3-2.8-2.8-2.8H266l-7.1-16.5h49.4c7.8,0,14.1-6.3,14.1-14.1V57.7C321.5,49.9,315.2,43.6,307.4,43.6z M258.9,197.5
					h-51.6l5-11.5H254L258.9,197.5z"/>
			</g>
		</g>
		<g>
			<g>
				<path class="st1" d="M235.4,166.1c-1.4-2.1-4.8-1.4-5.3,1.1c-0.1,1.1,0.4,2.4,1.4,3c1.1,0.6,2.4,0.4,3.3-0.4
					C236.1,168.9,236.3,167.3,235.4,166.1z"/>
			</g>
		</g>
		<g>
			<g>
				<path class="st1" d="M260.3,88.3c-2.3-3.7-5-6.1-6.8-7.4c0.4-2.3,0.6-4.7,0.6-7.1c0-1.6-1.3-2.8-2.8-2.8c-1.6,0-2.8,1.3-2.8,2.8
					c0,11.8-5.7,22.6-15.4,29.4c-9.7-6.7-15.4-17.6-15.4-29.4c0-5,1-10,3-14.4c3.7,2.4,8,3.7,12.4,3.7c4.4,0,8.7-1.3,12.4-3.7
					c0.7,1.7,1.4,3.6,1.8,5.4c0.4,1.6,2,2.4,3.6,2.1c1.6-0.4,2.4-2,2.1-3.6c-2.7-10.2-9.2-19.1-18.3-24.9c-1-0.6-2.1-0.6-3,0
					c-12.2,7.7-19.6,20.9-19.6,35.3c0,2.4,0.1,4.7,0.6,7.1c-1.8,1.3-4.6,3.7-6.8,7.4c-5.8,9.7-4,20.6-1.3,28c0.3,0.9,1,1.6,2,1.8
					c0.9,0.3,1.8,0,2.6-0.6c0.1-0.1,9.5-8,23.9-8s23.8,8,23.9,8c0.6,0.4,1.1,0.7,1.8,0.7c0.3,0,0.4,0,0.7-0.1c0.9-0.3,1.7-0.9,2-1.8
					C266.4,102.8,263.6,93.7,260.3,88.3z M233.1,44.5c3.8,2.7,7.1,6.1,9.7,10c-2.8,2-6.1,3.1-9.7,3.1s-6.8-1.1-9.7-3.1
					C225.9,50.6,229.2,47.2,233.1,44.5z M208.8,110.7c-3.4-12.9,1.7-20.3,5.3-23.8c2.3,6.7,6.1,12.7,11.2,17.4
					C217.9,105.8,212.2,108.6,208.8,110.7z M257.3,110.7c-3.4-2.1-9.1-5-16.5-6.3c5.3-4.8,9.1-10.8,11.2-17.4
					C255.6,90.4,260.7,97.8,257.3,110.7z"/>
			</g>
		</g>
		<g>
			<g>
				<path class="st1" d="M233.6,65.9c-5.3,0-9.5,4.3-9.5,9.5s4.3,9.5,9.5,9.5c5.3,0,9.5-4.3,9.5-9.5
					C243.2,70.2,238.8,65.9,233.6,65.9z M233.6,79.3c-2.1,0-3.8-1.7-3.8-3.8s1.7-3.8,3.8-3.8c2.1,0,3.8,1.7,3.8,3.8
					S235.7,79.3,233.6,79.3z"/>
			</g>
		</g>
	</g>
</g>
</svg>
