<?xml version="1.0" encoding="utf-8"?>
<!-- Generator: Adobe Illustrator 24.0.2, SVG Export Plug-In . SVG Version: 6.00 Build 0)  -->
<svg version="1.1" id="Layer_1" xmlns="http://www.w3.org/2000/svg" xmlns:xlink="http://www.w3.org/1999/xlink" x="0px" y="0px"
	 viewBox="0 0 512 512" style="enable-background:new 0 0 512 512;" xml:space="preserve">
<style type="text/css">
	.st0{fill:#FFFFFF;}
</style>
<g>
	<g>
		<path class="st0" d="M256,245.2c-4.6,0-8.3,3.7-8.3,8.3v83c0,4.6,3.7,8.3,8.3,8.3c4.6,0,8.3-3.7,8.3-8.3v-83
			C264.3,249,260.6,245.2,256,245.2z"/>
	</g>
</g>
<g>
	<g>
		<path class="st0" d="M206.8,32.7H40.8C18.3,32.7,0,50.9,0,73.4v59.2c0,4.6,3.7,8.3,8.3,8.3c4.6,0,8.3-3.7,8.3-8.3V73.4
			c0-13.3,10.8-24.1,24.1-24.1h166.1c4.6,0,8.3-3.7,8.3-8.3S211.4,32.7,206.8,32.7z"/>
	</g>
</g>
<g>
	<g>
		<path class="st0" d="M471.3,32.7H305.8c-4.6,0-8.3,3.7-8.3,8.3s3.7,8.3,8.3,8.3h165.5c13.3,0,24.1,10.8,24.1,24.1v284.4h-52.2
			c-4.6,0-8.3,3.7-8.3,8.3c0,4.6,3.7,8.3,8.3,8.3h52.2v15.3c0,13.3-10.8,24.1-24.1,24.1H40.8c-13.3,0-24.1-10.8-24.1-24.1v-15.3
			h398.7c4.6,0,8.3-3.7,8.3-8.3c0-4.6-3.7-8.3-8.3-8.3h-31.8c0.2-1.5,0.3-3,0.3-4.5c0-20-16.3-36.4-36.4-36.4
			c-4.5,0-8.8,0.8-12.9,2.3c-8.2-15.2-24.3-25.2-42.1-25.2c-0.1,0-0.1,0-0.2,0v-40.6c0-4.6-3.7-8.3-8.3-8.3s-8.3,3.7-8.3,8.3v69.6
			c0,4.6,3.7,8.3,8.3,8.3s8.3-3.7,8.3-8.3v-12.3c0.1,0,0.1,0,0.2,0c13.8,0,26.1,9.3,29.9,22.6c0.8,2.7,2.8,4.8,5.4,5.6
			c2.6,0.9,5.5,0.4,7.7-1.3c3.5-2.7,7.6-4.1,12-4.1c10.9,0,19.7,8.8,19.7,19.7c0,1.5-0.2,3-0.5,4.5H145.4c-0.3-1.5-0.5-3-0.5-4.5
			c0-10.9,8.8-19.7,19.7-19.7c4.4,0,8.5,1.4,12,4.1c2.2,1.7,5.1,2.2,7.7,1.3c2.6-0.9,4.6-3,5.4-5.6c3.8-13.3,16.1-22.6,29.9-22.6
			c0.1,0,0.1,0,0.2,0v12.3c0,4.6,3.7,8.3,8.3,8.3c4.6,0,8.3-3.7,8.3-8.3v-69.6c0-4.6-3.7-8.3-8.3-8.3c-4.6,0-8.3,3.7-8.3,8.3v40.6
			c-0.1,0-0.1,0-0.2,0c-17.8,0-33.9,10-42.1,25.2c-4.1-1.5-8.4-2.3-12.9-2.3c-20,0-36.4,16.3-36.4,36.4c0,1.5,0.1,3,0.3,4.5H16.7
			V160.4c0-4.6-3.7-8.3-8.3-8.3c-4.6,0-8.3,3.7-8.3,8.3v229.3c0,22.5,18.3,40.7,40.8,40.7h142.8L163,478.5h-40
			c-4.6,0-8.3,3.7-8.3,8.3s3.7,8.3,8.3,8.3h266c4.6,0,8.3-3.7,8.3-8.3s-3.7-8.3-8.3-8.3h-40l-20.5-47.9h142.8
			c22.5,0,40.7-18.3,40.7-40.7V73.4C512,50.9,493.7,32.7,471.3,32.7z M330.8,478.5H181.2l14.2-33.3h121.2L330.8,478.5z"/>
	</g>
</g>
<g>
	<g>
		<path class="st0" d="M262.9,387.6c-4.1-6.2-13.9-4-15.1,3.2c-0.6,3.5,1.1,7.1,4.3,8.8c3.1,1.7,7.1,1.1,9.7-1.3
			C264.7,395.4,265.1,390.9,262.9,387.6z"/>
	</g>
</g>
<g>
	<g>
		<path class="st0" d="M334.9,162.1c-6.5-10.7-14.4-17.6-19.6-21.4c1.1-6.7,1.7-13.5,1.7-20.4c0-4.6-3.7-8.3-8.3-8.3
			s-8.3,3.7-8.3,8.3c0,34.2-16.5,65.6-44.4,85.1c-27.9-19.4-44.4-50.9-44.4-85.1c0-14.6,3-28.6,8.6-41.5
			c10.5,7.1,22.9,10.9,35.8,10.9c12.9,0,25.2-3.8,35.8-10.8c2.2,5,4,10.2,5.4,15.6c1.1,4.5,5.7,7.1,10.1,6c4.5-1.1,7.1-5.7,6-10.1
			c-7.7-30-26.5-55.6-52.9-72.1c-2.7-1.7-6.1-1.7-8.8,0c-35.5,22.2-56.6,60.4-56.6,102.1c0,6.9,0.6,13.7,1.7,20.4
			c-5.2,3.8-13.1,10.7-19.6,21.4c-17.1,28.1-11.3,59.7-3.6,81.3c0.9,2.6,3.1,4.5,5.7,5.2c2.6,0.7,5.5,0.1,7.6-1.7
			c0.3-0.2,27.7-23.2,69.2-23.2c41.5,0,68.9,23,69.2,23.2c1.5,1.3,3.5,2,5.4,2c0.7,0,1.4-0.1,2.1-0.3c2.7-0.7,4.8-2.7,5.7-5.2
			C352.6,204.3,344.3,177.6,334.9,162.1z M256,35.2c11.2,7.8,20.6,17.6,27.9,28.9c-8.1,5.8-17.8,9-27.9,9c-10.1,0-19.8-3.2-27.9-9
			C235.3,52.9,244.7,43.1,256,35.2z M185.9,227.1c-9.9-37.5,4.8-58.8,15.2-68.6c6.4,19.2,17.6,36.5,32.7,50.4
			C212.2,212.6,195.7,221,185.9,227.1z M326.1,227.1c-9.8-6.1-26.3-14.5-47.9-18.2c15.1-13.8,26.3-31.2,32.7-50.4
			C321.3,168.4,336,189.7,326.1,227.1z"/>
	</g>
</g>
<g>
	<g>
		<path class="st0" d="M257.5,97.5c-15.3,0-27.8,12.5-27.8,27.8c0,15.3,12.5,27.8,27.8,27.8s27.8-12.5,27.8-27.8
			C285.2,109.9,272.8,97.5,257.5,97.5z M257.5,136.4c-6.1,0-11.1-5-11.1-11.1s5-11.1,11.1-11.1s11.1,5,11.1,11.1
			C268.6,131.4,263.6,136.4,257.5,136.4z"/>
	</g>
</g>
</svg>
