<?xml version="1.0" encoding="utf-8"?>
<!-- Generator: Adobe Illustrator 24.0.2, SVG Export Plug-In . SVG Version: 6.00 Build 0)  -->
<svg version="1.1" id="Capa_1" xmlns="http://www.w3.org/2000/svg" xmlns:xlink="http://www.w3.org/1999/xlink" x="0px" y="0px"
	 viewBox="0 0 488 488" style="enable-background:new 0 0 488 488;" xml:space="preserve">
<style type="text/css">
	.st0{fill:#083151;}
	.st1{fill:#0487A5;}
</style>
<g>
	<g>
		<g>
			<g>
				<g>
					<path class="st0" d="M329.8,304c-5.3,0-9.5,4.3-9.5,9.5v65.8c0,26.3-21.4,47.7-47.7,47.7H169.7c-5.3,0-9.5,4.3-9.5,9.5l0,19
						l-22.7-22.7c-1.5-3.4-4.8-5.7-8.7-5.7H66.7c-26.3,0-47.7-21.4-47.7-47.7V232.6c0-26.3,21.4-47.7,47.7-47.7H163
						c5.3,0,9.5-4.3,9.5-9.5c0-5.3-4.3-9.5-9.5-9.5H66.7C29.9,165.8,0,195.8,0,232.6v146.8c0,36.8,29.9,66.7,66.7,66.7h57.1
						l39.1,39.1c1.8,1.8,4.3,2.8,6.7,2.8c1.2,0,2.5-0.2,3.6-0.7c3.6-1.5,5.9-4.9,5.9-8.8l0-32.4h93.4c36.8,0,66.7-29.9,66.7-66.7
						v-65.8C339.3,308.3,335,304,329.8,304z"/>
				</g>
			</g>
		</g>
		<g>
			<g>
				<path class="st1" d="M349.5,0h-24.1C249,0,186.8,62.1,186.8,138.5S249,277.1,325.3,277.1h24.1c11.9,0,23.7-1.5,35.2-4.5
					l35.6,35.6c1.8,1.8,4.3,2.8,6.7,2.8c1.2,0,2.5-0.2,3.6-0.7c3.6-1.5,5.9-5,5.9-8.8v-55.1c15.1-12.2,27.6-27.7,36.4-44.9
					c10-19.6,15.1-40.7,15.1-62.9C488,62.1,425.9,0,349.5,0z M421.3,234c-2.4,1.8-3.8,4.6-3.8,7.6v36.8l-23.3-23.3
					c-1.8-1.8-4.2-2.8-6.7-2.8c-0.9,0-1.9,0.1-2.8,0.4c-11.3,3.5-23.2,5.3-35.1,5.3h-24.1c-65.9,0-119.5-53.6-119.5-119.5
					S259.5,19.1,325.3,19.1h24.1c65.9,0,119.5,53.6,119.5,119.5C468.9,176.4,451.6,211.2,421.3,234z"/>
			</g>
		</g>
		<g>
			<g>
				<path class="st1" d="M380.3,104.3c-1.4-20-17.5-36-37.4-37.4c-11.3-0.8-22.1,3-30.4,10.8c-8.1,7.6-12.8,18.4-12.8,29.5
					c0,5.3,4.3,9.5,9.5,9.5c5.3,0,9.5-4.3,9.5-9.5c0-6,2.4-11.5,6.8-15.6c4.4-4.1,10.1-6.1,16.1-5.7c10.5,0.7,19,9.2,19.7,19.7
					c0.7,10.6-6.2,20-16.6,22.3c-8.4,1.9-14.2,9.1-14.2,17.7v22.9c0,5.3,4.3,9.5,9.5,9.5c5.3,0,9.5-4.3,9.5-9.5v-22.1
					C368.8,141.7,381.7,124.1,380.3,104.3z"/>
			</g>
		</g>
		<g>
			<g>
				<g>
					<path class="st0" d="M346.8,199.5c-1.8-1.8-4.2-2.8-6.7-2.8c-2.5,0-5,1-6.7,2.8c-1.8,1.8-2.8,4.2-2.8,6.7c0,2.5,1,5,2.8,6.7
						c1.8,1.8,4.2,2.8,6.7,2.8c2.5,0,5-1,6.7-2.8c1.8-1.8,2.8-4.2,2.8-6.7C349.6,203.7,348.6,201.2,346.8,199.5z"/>
				</g>
			</g>
		</g>
		<g>
			<g>
				<g>
					<path class="st0" d="M262.1,295.5H61c-5.3,0-9.5,4.3-9.5,9.5c0,5.3,4.3,9.5,9.5,9.5h201.1c5.3,0,9.5-4.3,9.5-9.5
						C271.6,299.7,267.4,295.5,262.1,295.5z"/>
				</g>
			</g>
		</g>
		<g>
			<g>
				<g>
					<path class="st0" d="M268.8,351.6c-1.8-1.8-4.2-2.8-6.7-2.8s-5,1-6.7,2.8c-1.8,1.8-2.8,4.2-2.8,6.7c0,2.5,1,5,2.8,6.7
						c1.8,1.8,4.2,2.8,6.7,2.8s5-1,6.7-2.8c1.8-1.8,2.8-4.2,2.8-6.7C271.6,355.9,270.6,353.4,268.8,351.6z"/>
				</g>
			</g>
		</g>
		<g>
			<g>
				<g>
					<path class="st0" d="M224.6,348.8H61c-5.3,0-9.5,4.3-9.5,9.5c0,5.3,4.3,9.5,9.5,9.5h163.6c5.3,0,9.5-4.3,9.5-9.5
						C234.2,353.1,229.9,348.8,224.6,348.8z"/>
				</g>
			</g>
		</g>
		<g>
			<g>
				<g>
					<path class="st0" d="M200.2,242.1H61c-5.3,0-9.5,4.3-9.5,9.5s4.3,9.5,9.5,9.5h139.2c5.3,0,9.5-4.3,9.5-9.5
						S205.4,242.1,200.2,242.1z"/>
				</g>
			</g>
		</g>
	</g>
</g>
</svg>
